<?xml version="1.0" standalone="no"?>
<!DOCTYPE svg PUBLIC "-//W3C//DTD SVG 1.1//EN" "http://www.w3.org/Graphics/SVG/1.1/DTD/svg11.dtd" >
<!--
2013-9-30: Created.
-->
<svg>
<metadata>
Created by iconfont
</metadata>
<defs>

<font id="iconfont" horiz-adv-x="1024" >
  <font-face
    font-family="iconfont"
    font-weight="500"
    font-stretch="normal"
    units-per-em="1024"
    ascent="896"
    descent="-128"
  />
    <missing-glyph />
    
    <glyph glyph-name="x" unicode="x" horiz-adv-x="1001"
d="M281 543q-27 -1 -53 -1h-83q-18 0 -36.5 -6t-32.5 -18.5t-23 -32t-9 -45.5v-76h912v41q0 16 -0.5 30t-0.5 18q0 13 -5 29t-17 29.5t-31.5 22.5t-49.5 9h-133v-97h-438v97zM955 310v-52q0 -23 0.5 -52t0.5 -58t-10.5 -47.5t-26 -30t-33 -16t-31.5 -4.5q-14 -1 -29.5 -0.5
t-29.5 0.5h-32l-45 128h-439l-44 -128h-29h-34q-20 0 -45 1q-25 0 -41 9.5t-25.5 23t-13.5 29.5t-4 30v167h911zM163 247q-12 0 -21 -8.5t-9 -21.5t9 -21.5t21 -8.5q13 0 22 8.5t9 21.5t-9 21.5t-22 8.5zM316 123q-8 -26 -14 -48q-5 -19 -10.5 -37t-7.5 -25t-3 -15t1 -14.5
t9.5 -10.5t21.5 -4h37h67h81h80h64h36q23 0 34 12t2 38q-5 13 -9.5 30.5t-9.5 34.5q-5 19 -11 39h-368zM336 498v228q0 11 2.5 23t10 21.5t20.5 15.5t34 6h188q31 0 51.5 -14.5t20.5 -52.5v-227h-327z" />
    

    
    <glyph glyph-name="wxbbaobiao" unicode="&#58916;" d="M941.590594-0.266827 125.566322-0.266827 125.566322 815.822936c0 12.017708-9.710153 21.665439-21.664416 21.665439-11.997242 0-21.665439-9.648754-21.665439-21.665439l0-837.751109c0-11.932774 9.66922-21.666462 21.665439-21.666462l837.688687 0c11.974729 0 21.666462 9.733689 21.666462 21.666462C963.257056-9.912511 953.566346-0.266827 941.590594-0.266827M204.97079 191.16818c6.368034 0 12.695137 2.792603 16.989953 8.207939L387.391493 407.821545l204.846458-204.889437c4.487198-4.486174 10.749832-6.941086 16.926508-6.347568 6.262634 0.50756 12.017708 3.640923 15.741519 8.632611l258.204713 344.868515c7.193843 9.56382 5.248537 23.104207-4.358261 30.29805-9.562796 7.193843-23.146163 5.246491-30.336936-4.315282L605.270778 251.255697 400.889925 455.638597c-4.40124 4.315282-10.156314 6.770194-16.587793 6.262634-6.1777-0.338714-11.932774-3.302209-15.741519-8.125051L188.024839 226.290095c-7.448646-9.309016-5.882987-23.019273 3.469008-30.464849C195.534883 192.692906 200.252325 191.16818 204.97079 191.16818"  horiz-adv-x="1024" />

    
    <glyph glyph-name="wxbbiaowang" unicode="&#58918;" d="M900.75249 613.646284c-36.104289 0-65.428152-29.606295-65.428152-66.23247 0-11.192923 3.052522-21.620413 7.884574-30.905894-32.695656-23.393803-71.771627-36.760229-112.574938-36.760229-91.393523 0-167.723979 64.032362-189.120288 149.97985 21.396309 10.901281 36.238342 33.082466 36.238342 58.988486 0 36.557614-29.328979 66.231447-65.389266 66.231447-36.193317 0-65.433268-29.674856-65.433268-66.231447 0-25.904996 14.750959-48.087205 36.19434-58.988486-21.352307-85.947488-97.729835-149.97985-189.123358-149.97985-37.611619 0-73.806983 11.818163-105.016799 31.983435 6.512321 10.339486 10.432607 22.562878 10.432607 35.682687 0 36.626175-29.262464 66.23247-65.434292 66.23247-36.105313 0-65.410756-29.606295-65.410756-66.23247 0-34.719756 26.5374-62.934355 60.162218-65.693188l173.152619-429.800883L722.352357 51.919742l175.169555 429.621804c1.063215-0.089028 2.125407-0.361227 3.230578-0.361227 36.153408 0 65.435315 29.674856 65.435315 66.23247C966.188828 584.039989 936.905898 613.646284 900.75249 613.646284M693.20041 97.855958 331.16798 97.855958 188.780039 458.710562c32.540114-16.014742 68.423369-24.89704 105.216343-24.89704 96.887654 0 180.087565 58.539254 218.364333 142.221142C550.549479 492.351754 633.747343 433.813522 730.633974 433.813522c37.702694 0 74.16514 9.151427 107.081831 25.727964L693.20041 97.855958z"  horiz-adv-x="1024" />

    
    <glyph glyph-name="wxbgongju" unicode="&#58920;" d="M944.140673 177.587883 621.322359 443.637262c17.037025 37.017078 26.009374 77.727269 26.009374 118.662587 0 156.206668-127.07007 283.313577-283.313577 283.313577-28.04473 0-55.711859-3.996011-82.250282-12.062733l-30.853705-9.348925 175.299515-175.355797c7.463995-7.388271 11.496845-17.265222 11.496845-27.819602s-4.03285-20.430308-11.496845-27.894304l-92.992951-93.030813c-14.815427-14.776542-40.879036-14.852266-55.712883 0L102.189915 675.384393l-9.329483-30.758538c-8.066723-26.612101-12.156878-54.281277-12.156878-82.324984 0-156.131967 127.10691-283.239899 283.314601-283.239899 41.011043 0 81.684394 8.894577 118.662587 25.934672L623.357715 132.655532c0.678452-2.712785 1.811252-5.276167 3.618411-7.537673 1.88493-2.411933 4.297886-4.222161 6.935969-5.429663l113.687272-139.242298c14.175861-16.512069 34.529421-26.086122 55.789631-26.086122 19.525706 0 38.035268 7.841595 52.169173 21.937638l93.02979 93.030813c14.927991 14.927991 22.691815 34.45472 21.86396 54.958706C969.696722 144.792966 960.462406 163.641243 944.140673 177.587883M921.297408 96.619804l-93.030813-93.030813c-14.399965-14.32424-38.373982-13.269211-51.076282 1.658779l-53.714366 65.739237 64.685231 52.16815c8.329712 6.710842 9.572006 18.922978 2.938935 27.215852-6.710842 8.292873-18.847254 9.574053-27.140127 2.939959l-64.910359-52.393277-28.271904 34.6778 58.126862 46.89403c8.292873 6.708795 9.612938 18.845207 2.865257 27.139104-6.634094 8.367575-18.810415 9.650801-27.102265 2.939959l-58.31208-47.043433L492.783845 353.622132l-13.94664-7.388271c-35.132148-18.771529-74.786287-28.572756-114.818025-28.572756-134.947482 0-244.714468 109.692285-244.714468 244.639766 0 12.966313 0.998747 25.7822 2.996241 38.44766l127.917368-127.935788c29.345352-29.40061 80.930217-29.40061 110.295012 0l92.992951 93.030813c14.737656 14.70184 22.806425 34.302247 22.806425 55.184857 0 20.806885-8.068769 40.48404-22.806425 55.110155L325.607334 804.074358c12.664438 1.960655 25.51921 2.940982 38.410821 2.940982 134.947482 0 244.714468-109.691261 244.714468-244.713444 0-39.957037-9.874905-79.687924-28.572756-114.742301l-7.388271-13.947663L919.336754 148.0348c7.728008-6.634094 12.215206-15.60542 12.552897-25.25622C932.30409 113.129826 928.497391 103.854579 921.297408 96.619804"  horiz-adv-x="1024" />

    
    <glyph glyph-name="wxbmingxingdianpu" unicode="&#58921;" d="M226.754932 715.782475l588.594469 0 0-41.488927-588.594469 0 0 41.488927ZM974.794833 529.747455c0 47.089481-25.272593 75.04109-65.482387 97.662297L909.312446 807.919942c0 19.429515-15.83157 35.217083-35.217083 35.217083L167.939385 843.137025c-19.385513 0-35.173081-15.787568-35.173081-35.217083l0-182.01445c-30.762631-24.378224-49.472761-56.399521-49.472761-96.158037 0-40.930201 19.564591-77.088726 49.472761-100.656491l0-430.731068c0-19.383466 15.787568-35.174104 35.173081-35.174104l706.154955 0c19.385513 0 35.217083 15.788591 35.217083 35.174104L909.311423 418.298154C948.170452 440.470129 974.794833 481.893564 974.794833 529.747455M866.68151 4.675742l-691.284269 0L175.397241 405.929452c10.611685-2.877537 25.056676-4.901637 36.570917-4.901637 43.805692 0 82.439594 22.081924 105.692181 55.588039 23.252587-33.506115 61.931514-55.588039 105.690134-55.588039 43.807738 0 82.440617 22.081924 105.737206 55.588039 23.209608-33.506115 61.888536-55.588039 105.693204-55.588039 43.715641 0 82.395592 22.081924 105.60213 55.588039 23.295566-33.506115 61.885466-55.588039 105.692181-55.588039 5.846148 0 14.939247 0.98749 20.605294 1.7519L866.680487 4.675742zM846.078263 442.514695c-45.515636 0-84.859713 41.71917-84.859713 87.23276 0 12.727882-8.061606 23.026436-20.745487 23.026436-12.769838 0-20.74344-10.299577-20.74344-23.026436 0-45.514613-39.434128-87.23276-84.947717-87.23276-45.603641 0-84.948741 41.71917-84.948741 87.23276 0 12.727882-8.06263 23.026436-20.74344 23.026436-12.771885 0-20.74344-10.299577-20.74344-23.026436 0-45.514613-39.389102-87.23276-84.99479-87.23276-45.559639 0-84.947717 41.71917-84.947717 87.23276 0 12.727882-7.970532 23.026436-20.74344 23.026436-12.727882 0-20.74344-10.299577-20.74344-23.026436 0-45.514613-39.3451-87.23276-84.948741-87.23276-45.559639 0-87.184665 41.71917-87.184665 87.23276 0 28.469402 9.824763 54.643528 33.885761 69.938885 6.882757 4.361331 15.585977 11.82635 15.585977 19.428491l0 0L174.255231 806.215114l693.567265 0 0-177.883363c-0.357134-9.312086 4.949732-18.304901 14.123672-22.038946 31.211862-12.681834 51.359738-42.814108 51.359738-76.546374C933.30693 484.232842 891.682927 442.514695 846.078263 442.514695"  horiz-adv-x="1024" />

    
    <glyph glyph-name="wxbpinpaibao" unicode="&#58922;" d="M920.325267 404.634969c-2.373047 7.238868-8.725732 12.588713-16.32992 13.674441l-248.359484 35.716456-111.046119 222.497467c-3.420913 6.835685-10.459213 11.17962-18.22099 11.17962s-14.762215-4.343935-18.22099-11.17962l-111.047142-222.497467-248.298086-35.716456c-7.66047-1.086751-14.016225-6.435573-16.409738-13.674441-2.39249-7.237845-0.402159-15.243169 5.148253-20.591991l179.681312-173.147502-42.431392-244.576321c-1.286296-7.52437 1.830695-15.123442 8.084119-19.630083 6.275937-4.503571 14.540158-5.066389 21.376866-1.52575l222.115774 115.472941 222.134193-115.472941c2.935865-1.529843 6.194072-2.293229 9.411347-2.293229 4.222161 0 8.40646 1.326205 11.945053 3.817955 6.233981 4.505617 9.370415 12.106736 8.084119 19.631106l-42.432415 244.576321 179.743734 173.147502C920.726403 389.392824 922.7372 397.397125 920.325267 404.634969L920.325267 404.634969zM698.49295 232.252901c-4.745071-4.584412-6.91755-11.263531-5.791913-17.736966L730.968595-0.380414 535.822057 103.102449c-5.91164 3.134387-12.94994 3.134387-18.904559 0L321.770959-0.380414l39.290865 214.896348c1.125637 6.473435-1.044796 13.152555-5.831822 17.736966L195.340455 384.446162l219.196281 30.30726c6.636141 0.962931 12.347213 5.068436 15.284101 10.979052l96.550986 196.492186 96.550986-196.492186c2.935865-5.910617 8.646937-10.016121 15.285125-10.979052l219.216747-30.30726L698.49295 232.252901 698.49295 232.252901zM199.5575 475.447758c11.913331 0 21.605064 9.709129 21.605064 21.623483L221.162564 793.230382l609.439216 0 0-296.15914c0-11.914354 9.637498-21.623483 21.588691-21.623483 11.952216 0 21.586644 9.709129 21.586644 21.623483L873.777115 814.853865c0 11.914354-9.634428 21.586644-21.586644 21.586644L199.5575 836.440509c-11.933797 0-21.606087-9.67229-21.606087-21.586644l0-317.782623C177.951413 485.156888 187.623703 475.447758 199.5575 475.447758L199.5575 475.447758z"  horiz-adv-x="1024" />

    
    <glyph glyph-name="edit" unicode="&#58881;" d="M376.149333 217.94133366999995c12.629333-12.629333 32.938667-12.629333 45.568 0l456.021334 456.021333c12.629333 12.629333 12.629333 32.938667 0 45.568-12.629333 12.629333-32.938667 12.629333-45.568 0L376.149333 263.50933367000005c-12.629333-12.629333-12.629333-33.109333 0-45.568z m486.570667 298.666666c-17.749333 0-32.256-14.506667-32.256-32.256v-386.901333c0-35.669333-28.842667-64.512-64.512-64.512H250.197333c-35.669333 0-64.512 28.842667-64.512 64.512V613.37599967c0 35.669333 28.842667 64.512 64.512 64.512h386.901334c17.749333 0 32.256 14.506667 32.256 32.256 0 17.749333-14.506667 32.256-32.256 32.256H185.685333c-35.669333-0.170667-64.512-29.013333-64.512-64.682666v-644.949334c0-35.669333 28.842667-64.512 64.512-64.512h644.949334c35.669333 0 64.512 28.842667 64.512 64.512V484.35199967c-0.170667 17.749333-14.506667 32.256-32.426667 32.256z"  horiz-adv-x="1024" />

    
    <glyph glyph-name="save" unicode="&#58882;" d="M768.512 725.33333334H255.488C185.173333 725.33333334 128 667.47733334 128 596.4800003400001v-510.464c0-70.997333 57.173333-128.853333 127.488-128.853334h513.024c70.314667 0 127.488 57.685333 127.488 128.853334V596.4800003400001c0 70.997333-57.173333 128.853333-127.488 128.853333z m-452.608-50.346667H708.266667v-284.672H315.904V674.98666634z m530.432-588.8c0-43.349333-34.816-78.506667-77.824-78.506666H255.488c-42.837333 0-77.824 35.328-77.824 78.506666v510.293334c0 43.349333 34.816 78.506667 77.824 78.506666h10.581333v-335.018666H757.76V675.15733334h10.581333c42.837333 0 77.824-35.157333 77.824-78.506667l0.170667-510.464z m-261.12 514.901334H634.88v-167.424h-49.664v167.424z"  horiz-adv-x="1024" />

    
    <glyph glyph-name="download" unicode="&#58884;" d="M492.202667 60.416000019999956c4.949333-5.973333 12.288-9.728 20.650666-9.728 8.362667 0 15.701333 3.754667 20.650667 9.728L732.16 259.24266702c10.410667 10.410667 10.410667 27.306667 0 37.717333-10.410667 10.410667-27.306667 10.410667-37.717333 0l-154.794667-154.794667V532.82133302c0 14.677333-11.946667 26.624-26.624 26.624s-26.624-11.946667-26.624-26.624v-390.656L331.264 296.96000002000005c-10.410667 10.410667-27.306667 10.410667-37.717333 0-10.410667-10.410667-10.410667-27.306667 0-37.717333l198.656-198.826667z m377.514666 62.976c-14.506667 0-26.282667-11.776-26.282666-26.282667V5.12000002000002h-662.186667v91.989333c0 14.677333-11.946667 26.624-26.624 26.624s-26.624-11.946667-26.624-26.624v-118.272c0-14.506667 11.776-26.282667 26.282667-26.282666h715.264c14.506667 0 26.282667 11.776 26.282666 26.282666v118.101334c0.170667 14.506667-11.605333 26.453333-26.112 26.453333z"  horiz-adv-x="1024" />

    
    <glyph glyph-name="wrong" unicode="&#58885;" d="M785.066667 462.16533369L739.498667 507.73333369 512 280.23466669000004 284.501333 507.73333369 238.933333 462.16533369 466.432 234.66666669000006 238.933333 7.167999689999988l45.568-45.568L512 189.09866668999996 739.498667-38.400000309999996l45.568 45.568L557.568 234.66666669000006z"  horiz-adv-x="1024" />

    
    <glyph glyph-name="attachment" unicode="&#58886;" d="M796.672 239.95733334c11.605333 11.776 11.605333 30.72 0 42.325333-11.605333 11.776-30.378667 11.776-41.984 0l-0.341333 0.341334-223.573334-225.621334c-69.632-56.149333-171.690667-51.712-236.032 13.482667-64.512 65.194667-68.778667 168.277333-13.312 238.592l325.632 337.578667c43.690667 28.501333 102.912 23.552 141.141334-15.189334 38.229333-38.741333 43.349333-98.474667 15.018666-142.677333L472.064 193.70666633999997c-1.536-2.389333-3.242667-4.778667-5.461333-6.826666-15.530667-15.701333-40.789333-15.701333-56.32 0-15.530667 15.701333-15.530667 41.301333 0 57.002666 2.048 2.048 4.437333 3.925333 6.826666 5.461334L646.314667 482.98666634c0.853333 0.682667 1.877333 1.536 2.730666 2.389334 11.605333 11.776 11.605333 30.72 0 42.496-11.605333 11.776-30.378667 11.776-41.984 0l-1.024-1.024-231.765333-234.325334c-2.218667-1.877333-4.266667-3.754667-6.314667-5.973333-38.912-39.253333-38.912-103.253333 0-142.677333 38.912-39.253333 102.229333-39.253333 141.141334 0 2.048 2.048 3.925333 4.266667 5.802666 6.485333l291.328 294.741333c51.370667 68.437333 46.08 166.570667-15.701333 229.034667-61.781333 62.464-158.890667 67.584-226.645333 15.872l-325.12-337.92c-78.848-94.208-74.410667-235.690667 13.482666-324.608 87.04-87.893333 225.109333-93.184 318.293334-16.042667l0.170666-0.341333L797.013333 239.61600034000003l-0.341333 0.341333z"  horiz-adv-x="1024" />

    
    <glyph glyph-name="search" unicode="&#58888;" d="M889.002667-1.365333660000033L700.245333 187.22133334c22.016 25.6 39.936 54.272 53.248 85.504 16.896 40.106667 25.6 82.773333 25.6 126.634667 0 50.688-11.434667 99.328-33.792 144.384-5.802667 11.946667-20.309333 16.725333-32.256 10.922666-11.946667-5.802667-16.725333-20.309333-10.922666-32.085333 19.114667-38.4 28.672-79.872 28.672-123.050667 0-75.093333-30.037333-143.36-78.677334-193.365333-0.853333-0.682667-1.877333-1.365333-2.730666-2.218667s-1.536-1.706667-2.389334-2.730666c-50.005333-48.981333-118.442667-79.018667-193.877333-79.018667-153.088 0-277.504 124.416-277.504 277.504 0 152.917333 124.416 277.504 277.504 277.504 54.442667 0 107.178667-15.701333 152.405333-45.568 11.093333-7.338667 25.941333-4.266667 33.28 6.826667 7.338667 11.093333 4.266667 25.941333-6.826666 33.28-52.906667 34.816-114.688 53.248-178.517334 53.248-43.861333 0-86.528-8.533333-126.634666-25.6-38.741333-16.384-73.557333-39.936-103.424-69.802667S169.984 564.90666634 153.6 526.16533334c-16.896-40.106667-25.6-82.773333-25.6-126.634667 0-43.861333 8.704-86.528 25.6-126.634666 16.384-38.741333 39.936-73.557333 69.802667-103.424s64.682667-53.418667 103.424-69.802667c40.106667-16.896 82.773333-25.6 126.634666-25.6 43.861333 0 86.528 8.533333 126.634667 25.6 31.573333 13.312 60.416 31.232 86.186667 53.589333L855.04-35.327999660000046c4.608-4.608 10.752-6.997333 16.896-6.997334 6.144 0 12.288 2.389333 16.896 6.997334 9.557333 9.386667 9.557333 24.576 0.170667 33.962666z"  horiz-adv-x="1024" />

    
    <glyph glyph-name="canlender" unicode="&#58887;" d="M484.522667 237.73866700999997H539.306667c15.36 0 27.477333 12.117333 27.477333 27.477333 0 15.36-12.117333 27.477333-27.477333 27.477333h-54.784c-15.36 0-27.477333-12.117333-27.477334-27.477333 0.170667-15.36 12.117333-27.477333 27.477334-27.477333z m0-109.738667H539.306667c15.36 0 27.477333 12.117333 27.477333 27.477333 0 15.36-12.117333 27.477333-27.477333 27.477334h-54.784c-15.36 0-27.477333-12.117333-27.477334-27.477334 0.170667-15.36 12.117333-27.477333 27.477334-27.477333z m301.738666 493.738667h-109.738666v27.477333c0 15.36-12.117333 27.477333-27.477334 27.477333-15.36 0-27.477333-12.117333-27.477333-27.477333v-27.477333H402.261333v27.477333c0 15.36-12.117333 27.477333-27.477333 27.477333-15.36 0-27.477333-12.117333-27.477333-27.477333v-27.477333h-109.738667c-60.416 0-109.738667-49.322667-109.738667-109.738667v-438.784c0-60.416 49.322667-109.738667 109.738667-109.738667h548.522667c60.416 0 109.738667 49.322667 109.738666 109.738667V512.00000001c0.170667 60.416-49.152 109.738667-109.568 109.738667z m54.954667-548.522667c0-30.208-24.746667-54.784-54.784-54.784H237.738667c-30.208 0-54.784 24.746667-54.784 54.784V402.26133301h658.261333v-329.045333z m0 384H182.784v54.784c0 30.208 24.746667 54.784 54.784 54.784h109.738667v-27.477333c0-15.36 12.117333-27.477333 27.477333-27.477334 15.36 0 27.477333 12.117333 27.477333 27.477334v27.477333h219.477334v-27.477333c0-15.36 12.117333-27.477333 27.477333-27.477334 15.36 0 27.477333 12.117333 27.477333 27.477334v27.477333h109.738667c30.208 0 54.784-24.746667 54.784-54.784v-54.784zM320 128.00000001h54.784c15.36 0 27.477333 12.117333 27.477333 27.477333 0 15.36-12.117333 27.477333-27.477333 27.477334h-54.784c-15.36 0-27.477333-12.117333-27.477333-27.477334 0-15.36 12.117333-27.477333 27.477333-27.477333z m329.216 109.738667h54.784c15.36 0 27.477333 12.117333 27.477333 27.477333 0 15.36-12.117333 27.477333-27.477333 27.477333h-54.784c-15.36 0-27.477333-12.117333-27.477333-27.477333 0-15.36 12.117333-27.477333 27.477333-27.477333z m-329.216 0h54.784c15.36 0 27.477333 12.117333 27.477333 27.477333 0 15.36-12.117333 27.477333-27.477333 27.477333h-54.784c-15.36 0-27.477333-12.117333-27.477333-27.477333 0-15.36 12.117333-27.477333 27.477333-27.477333z m329.216-109.738667h54.784c15.36 0 27.477333 12.117333 27.477333 27.477333 0 15.36-12.117333 27.477333-27.477333 27.477334h-54.784c-15.36 0-27.477333-12.117333-27.477333-27.477334 0-15.36 12.117333-27.477333 27.477333-27.477333z"  horiz-adv-x="1024" />

    
    <glyph glyph-name="msg-warning" unicode="&#58889;" d="M798.037333 135.16800034000005c-0.512 1.194667-51.541333 117.418667-51.541333 230.741333 0 61.781333-24.576 119.808-69.290667 163.498667-25.941333 25.429333-57.002667 44.032-90.794666 55.296 11.093333 14.677333 17.749333 32.768 17.749333 52.565333 0 48.64-40.618667 88.234667-90.453333 88.234667s-90.453333-39.594667-90.453334-88.234667c0-18.773333 5.973333-36.181333 16.213334-50.346667-36.352-10.922667-69.632-30.378667-97.450667-57.514666-44.714667-43.690667-69.461333-101.717333-69.461333-163.498667 0-67.413333-47.274667-232.106667-47.786667-233.642667-2.048-7.168-0.512-15.018667 4.096-20.992 4.608-5.973333 11.946667-9.557333 19.626667-9.557333h526.677333c8.362667 0 16.042667 4.096 20.650667 10.922667 4.608 6.485333 5.461333 15.018667 2.218666 22.528zM513.536 677.20533334c22.698667 0 41.130667-18.090667 41.130667-40.106667 0-22.186667-18.432-40.106667-41.130667-40.106666s-41.130667 18.090667-41.130667 40.106666c0 22.186667 18.432 40.106667 41.130667 40.106667zM280.746667 149.67466634000004c14.165333 52.906667 41.130667 160.597333 41.130666 216.234667 0 100.864 84.138667 183.125333 187.562667 183.125333s187.562667-82.090667 187.562667-183.125333c0-85.674667 25.941333-170.837333 42.325333-216.234667H280.746667z m330.752-95.744c-12.970667 0-23.552-9.728-24.576-22.016-2.048-2.901333-10.24-9.728-26.112-16.213333-15.701333-6.314667-33.792-10.410667-47.104-10.410667s-31.573333 3.925333-47.616 10.410667c-17.408 6.997333-24.917333 13.653333-26.965334 16.384-1.194667 12.288-11.776 21.845333-24.576 21.845333-13.653333 0-24.576-10.752-24.576-24.064 0-21.333333 17.066667-40.277333 49.322667-54.954666C463.018667-35.83999965999999 491.52-42.66666666000003 513.877333-42.66666666000003c22.698667 0 50.346667 6.485333 73.898667 17.578667 31.744 14.677333 48.469333 33.792 48.469333 55.125333-0.170667 13.141333-11.264 23.893333-24.746666 23.893333z"  horiz-adv-x="1024" />

    
    <glyph glyph-name="delete-backspace" unicode="&#58890;" d="M571.904 233.64266669000006l-89.941333-87.210667c-6.485333-8.362667-6.485333-20.821333 0-29.013333 4.266667-4.096 10.752-6.144 15.018666-6.144 4.266667 0 10.752 2.048 15.018667 6.144l89.941333 87.210667 89.941334-87.210667c4.266667-4.096 10.752-6.144 15.018666-6.144 4.266667 0 10.752 2.048 15.018667 6.144 8.533333 8.362667 8.533333 20.821333 0 29.013333l-89.941333 87.210667 89.941333 87.210667c8.533333 8.362667 8.533333 20.821333 0 29.013333-8.533333 8.362667-21.333333 8.362667-30.037333 0l-89.941334-87.210667-89.941333 87.210667c-8.533333 8.362667-21.333333 8.362667-30.037333 0-8.533333-8.362667-8.533333-20.821333 0-29.013333l89.941333-87.210667zM901.461333 507.73333369H366.421333c-10.752 0-21.333333 0-280.405333-261.632-8.533333-8.362667-8.533333-20.821333 0-29.013334C347.136-38.400000309999996 355.84-38.400000309999996 366.421333-38.400000309999996h535.04c23.552 0 42.837333 18.602667 42.837334 41.472V466.26133369c0 22.869333-19.285333 41.472-42.837334 41.472z m0-504.661334H372.906667c-25.6 18.602667-137.045333 126.634667-239.616 230.570667 102.741333 103.765333 216.064 213.845333 239.616 232.618667h528.554666v-463.189334z"  horiz-adv-x="1024" />

    
    <glyph glyph-name="delete" unicode="&#58891;" d="M594.261333 128.00000001c-15.189333 0-27.477333 12.288-27.477333 27.477333V457.21600001c0 15.189333 12.288 27.477333 27.477333 27.477333 15.189333 0 27.477333-12.288 27.477334-27.477333v-301.738667c0-15.189333-12.288-27.477333-27.477334-27.477333m-164.522666 0c-15.189333 0-27.477333 12.288-27.477334 27.477333V457.21600001c0 15.189333 12.288 27.477333 27.477334 27.477333 15.189333 0 27.477333-12.288 27.477333-27.477333v-301.738667c0-15.189333-12.288-27.477333-27.477333-27.477333M868.693333 566.78400001h-137.216v27.477333c0.170667 45.226667-36.352 82.090667-81.749333 82.261334h-274.773333c-45.397333 0-82.261333-36.864-82.261334-82.261334v-27.477333H155.477333c-15.189333 0-27.477333-12.288-27.477333-27.477333 0-15.189333 12.288-27.477333 27.477333-27.477334H868.693333c15.189333 0 27.477333 12.288 27.477334 27.477334-0.170667 15.189333-12.458667 27.477333-27.477334 27.477333m-521.216 27.477333c0 15.189333 12.288 27.477333 27.477334 27.477334h274.944c15.018667 0 26.794667-11.946667 26.794666-27.477334v-27.477333H347.477333v27.477333m356.693334-630.784H320c-45.397333 0-82.261333 36.864-82.261333 82.261334V457.55733301c0 15.189333 12.288 27.477333 27.477333 27.477334 15.189333 0 27.477333-12.288 27.477333-27.477334v-411.818666c0-15.189333 12.288-27.477333 27.477334-27.477334h384.170666c15.189333 0 27.477333 12.288 27.477334 27.477334V456.36266701c0 15.189333 12.288 27.477333 27.477333 27.477333 15.189333 0 27.477333-12.288 27.477333-27.477333v-410.624c-0.341333-45.568-37.205333-82.261333-82.602666-82.261334z"  horiz-adv-x="1024" />

    
    <glyph glyph-name="down-array" unicode="&#58892;" d="M528.213333 276.650667l-2.389333-2.389334c-8.021333-8.021333-20.992-8.021333-29.013333 0l-189.44 189.44c-8.021333 8.021333-8.021333 20.992 0 29.013334l2.389333 2.389333c8.021333 8.021333 20.992 8.021333 29.013333 0l189.44-189.44c8.021333-8.021333 8.021333-21.162667 0-29.013333zM498.176 272.89599999999996l-2.389333 2.389333c-8.021333 8.021333-8.021333 20.992 0 29.013334l189.44 189.44c8.021333 8.021333 20.992 8.021333 29.013333 0l2.389333-2.389334c8.021333-8.021333 8.021333-20.992 0-29.013333l-189.44-189.44c-8.021333-7.850667-21.162667-7.850667-29.013333 0z"  horiz-adv-x="1024" />

    
    <glyph glyph-name="up-array" unicode="&#58893;" d="M495.786667 491.349333l2.389333 2.389334c8.021333 8.021333 20.992 8.021333 29.013333 0l189.44-189.44c8.021333-8.021333 8.021333-20.992 0-29.013334l-2.389333-2.389333c-8.021333-8.021333-20.992-8.021333-29.013333 0l-189.44 189.44c-8.021333 8.021333-8.021333 21.162667 0 29.013333zM525.824 495.104l2.389333-2.389333c8.021333-8.021333 8.021333-20.992 0-29.013334l-189.44-189.44c-8.021333-8.021333-20.992-8.021333-29.013333 0l-2.389333 2.389334c-8.021333 8.021333-8.021333 20.992 0 29.013333l189.44 189.44c8.021333 7.850667 21.162667 7.850667 29.013333 0z"  horiz-adv-x="1024" />

    
    <glyph glyph-name="set" unicode="&#58894;" d="M880.64 416.42666634c0 7.509333-7.168 15.189333-14.506667 15.189334-39.765333 11.434667-72.362667 34.133333-90.453333 72.021333-21.674667 37.888-25.258667 79.701333-14.506667 121.344 3.584 7.509333 0 15.189333-7.168 22.698667-36.181333 34.133333-79.530667 60.757333-123.050666 75.946666-7.168 3.754667-14.506667 0-21.674667-3.754666-29.013333-30.378667-65.194667-49.322667-104.96-49.322667-39.765333 0-75.946667 18.944-104.96 49.322667-3.584 3.754667-10.922667 3.754667-18.090667 0-47.104-15.189333-86.869333-41.813333-123.050666-75.946667-7.168-3.754667-7.168-11.434667-7.168-18.944 10.922667-41.813333 7.168-83.456-10.922667-121.344-21.674667-37.888-54.272-64.512-90.453333-72.021333-7.168 0-14.506667-7.509333-14.506667-15.189334-3.584-26.624-7.168-49.322667-7.168-75.946666 0-26.624 3.584-49.322667 7.168-75.946667 0-7.509333 7.168-15.189333 14.506667-15.189333 39.765333-11.434667 72.362667-34.133333 90.453333-72.021334 21.674667-37.888 25.258667-79.701333 14.506667-121.514666-3.584-7.509333 0-15.189333 7.168-22.698667 36.181333-34.133333 79.530667-60.757333 123.050666-75.946667h7.168c3.584 0 10.922667 3.754667 14.506667 7.509334 29.013333 30.378667 65.194667 49.322667 104.96 49.322666s75.946667-18.944 104.96-49.322666c3.584-7.509333 14.506667-7.509333 21.674667-3.754667 47.104 15.189333 86.869333 41.813333 123.050666 75.946667 7.168 3.754667 7.168 15.189333 7.168 22.698666-10.922667 41.813333-7.168 83.456 14.506667 121.344 21.674667 37.888 54.272 64.512 90.453333 72.021334 7.168 0 14.506667 7.509333 14.506667 15.189333 3.584 26.624 8.192 39.424 8.192 77.312 0 31.061333-9.386667 50.176-15.36 70.997333z m-52.565333-130.048c-41.301333-14.506667-75.776-43.349333-99.84-82.944-20.650667-39.765333-27.477333-86.698667-17.237334-133.632-27.477333-21.674667-55.125333-39.765333-86.016-54.101333-31.061333 32.426667-72.362667 50.517333-117.077333 50.517333-44.714667 0-86.016-18.090667-117.077333-50.517333-30.890667 14.506667-61.952 32.426667-86.016 54.101333 10.24 46.933333 3.413333 93.866667-17.237334 133.632-20.650667 39.765333-58.538667 68.608-99.84 82.944-3.413333 18.090667-3.413333 36.010667-3.413333 54.101334 0 18.090667 0 36.181333 3.413333 54.101333 37.888 10.752 72.362667 39.765333 96.426667 82.944 20.650667 39.765333 27.477333 86.698667 17.237333 133.632 27.477333 21.674667 55.125333 39.765333 86.016 50.517333 31.061333-32.426667 72.362667-50.517333 117.077334-50.517333 44.714667 0 86.016 18.090667 117.077333 50.517333 31.061333-14.506667 61.952-32.426667 86.016-54.101333-6.826667-43.349333 0-90.282667 20.650667-129.877333 20.650667-39.765333 58.538667-68.608 99.84-82.944 3.413333-18.090667 8.362667-35.498667 8.362666-53.589334 0-18.090667-1.536-38.058667-8.362666-54.784zM511.488 474.96533334c-70.314667 0-127.317333-59.733333-127.317333-133.632 0-73.728 57.002667-133.632 127.317333-133.632 70.314667 0 127.317333 59.733333 127.317333 133.632 0.170667 73.728-56.832 133.632-127.317333 133.632z m0-214.186667c-42.325333 0-76.8 36.010667-76.8 80.384s34.304 80.384 76.8 80.384c42.325333 0 76.8-36.010667 76.8-80.384 0-44.202667-34.304-80.384-76.8-80.384z"  horiz-adv-x="1024" />

    
    <glyph glyph-name="checkout" unicode="&#58895;" d="M783.36 591.70133334c-13.824 13.312-36.181333 13.312-49.834667 0-13.824-13.312-13.824-34.986667 0-48.298667 59.221333-57.344 91.818667-133.461333 91.818667-214.528 0-167.253333-140.629333-303.274667-313.514667-303.274666-172.885333 0-313.344 136.021333-313.344 303.274666 0 80.042667 31.744 155.477333 89.6 212.48 13.653333 13.482667 13.482667 34.986667-0.512 48.298667-13.994667 13.141333-36.181333 12.970667-49.834666-0.512C166.912 519.3386663399999 128 426.83733334 128 328.87466634 128 124.07466634000002 300.202667-42.66666666000003 512-42.66666666000003s384 166.741333 384 371.541333c0 99.328-39.936 192.682667-112.64 262.826667zM512 386.38933334c19.456 0 35.328 15.36 35.328 34.133333V691.20000034c0 18.773333-15.872 34.133333-35.328 34.133333-19.456 0-35.328-15.36-35.328-34.133333v-270.677334c0-18.944 15.872-34.133333 35.328-34.133333z"  horiz-adv-x="1024" />

    
    <glyph glyph-name="sort" unicode="&#58896;" d="M888.832 50.688000020000004l-93.525333-92.16c-0.682667-1.024-1.536-1.877333-2.389334-2.730667-4.608-4.608-10.581333-6.826667-16.725333-6.997333h-1.024c-0.682667 0-1.365333 0-2.048 0.170667h-0.341333c-7.168 0.682667-13.482667 4.608-17.408 10.069333l-92.672 91.306667c-9.386667 9.216-9.386667 24.234667 0 33.621333 9.386667 9.216 24.746667 9.216 34.133333 0l54.272-53.418667V539.4773330200001c0 13.141333 10.752 23.722667 24.064 23.722667s24.064-10.581333 24.064-23.722667v-509.44l55.125333 54.272c9.386667 9.386667 24.746667 9.386667 34.133334 0 9.898667-9.216 9.898667-24.405333 0.341333-33.621333z m-306.176-100.864H152.064c-13.312 0-24.064 10.581333-24.064 23.722667s10.752 23.722667 24.064 23.722666h430.592c13.312 0 24.064-10.581333 24.064-23.722666 0-12.970667-10.752-23.722667-24.064-23.722667z m0 281.941333H152.064c-13.312 0-24.064 10.581333-24.064 23.722667s10.752 23.722667 24.064 23.722667h430.592c13.312 0 24.064-10.581333 24.064-23.722667s-10.752-23.722667-24.064-23.722667z m0 283.989334H152.064c-13.312 0-24.064 10.581333-24.064 23.722666S138.752 563.2000000200001 152.064 563.2000000200001h430.592c13.312 0 24.064-10.581333 24.064-23.722667s-10.752-23.722667-24.064-23.722666z"  horiz-adv-x="1024" />

    
    <glyph glyph-name="sort-type" unicode="&#58897;" d="M818.858667-42.66666666000003H643.754667c-42.666667 0-77.141333 34.645333-77.141334 77.312V209.57866634000004c0 42.666667 34.645333 77.141333 77.141334 77.141334h175.104c42.666667 0 77.141333-34.645333 77.141333-77.141334v-175.104c0-42.496-34.645333-77.141333-77.141333-77.141333z m22.186666 252.245333c0 12.288-10.069333 22.357333-22.357333 22.357334H643.754667c-12.288 0-22.357333-10.069333-22.357334-22.357334v-175.104c0-12.288 10.069333-22.357333 22.357334-22.357333h175.104c12.288 0 22.357333 10.069333 22.357333 22.357333V209.57866634000004z m-22.186666 186.197334H643.754667c-42.666667 0-77.141333 34.645333-77.141334 77.312V648.02133334c0 42.666667 34.645333 77.312 77.141334 77.312h175.104c42.666667 0 77.141333-34.645333 77.141333-77.312v-175.104c0-42.496-34.645333-77.141333-77.141333-77.141333z m22.186666 252.245333c0 12.288-10.069333 22.357333-22.357333 22.357333H643.754667c-12.288 0-22.357333-10.069333-22.357334-22.357333v-175.104c0-12.288 10.069333-22.357333 22.357334-22.357333h175.104c12.288 0 22.357333 10.069333 22.357333 22.357333V648.02133334zM380.245333-42.66666666000003H205.312c-42.666667 0-77.312 34.645333-77.312 77.312V209.57866634000004c0 42.666667 34.645333 77.141333 77.312 77.141334h175.104c42.666667 0 77.312-34.645333 77.312-77.141334v-175.104c-0.170667-42.496-34.816-77.141333-77.482667-77.141333z m22.357334 252.245333c0 12.288-10.069333 22.357333-22.357334 22.357334H205.312c-12.288 0-22.357333-10.069333-22.357333-22.357334v-175.104c0-12.288 9.898667-22.357333 22.357333-22.357333h175.104c12.288 0 22.357333 10.069333 22.357333 22.357333V209.57866634000004z m-22.357334 186.197334H205.312c-42.666667 0-77.312 34.645333-77.312 77.312V648.02133334c0 42.666667 34.645333 77.312 77.312 77.312h175.104c42.666667 0 77.312-34.645333 77.312-77.312v-175.104c-0.170667-42.496-34.816-77.141333-77.482667-77.141333z m22.357334 252.245333c0 12.288-10.069333 22.357333-22.357334 22.357333H205.312c-12.288 0-22.357333-10.069333-22.357333-22.357333v-175.104c0-12.288 9.898667-22.357333 22.357333-22.357333h175.104c12.288 0 22.357333 10.069333 22.357333 22.357333V648.02133334z"  horiz-adv-x="1024" />

    
    <glyph glyph-name="house-key" unicode="&#58898;" d="M886.442667 418.81600034l-360.106667 302.933333c-9.557333 4.778667-19.285333 4.778667-28.842667 0L137.557333 418.81600034c-9.557333-4.778667-9.557333-19.285333-9.557333-28.842667 4.778667-9.557333 14.336-14.336 24.064-14.336h72.021333V221.86666634000005c0-14.336 9.557333-24.064 24.064-24.064 14.336 0 24.064 9.557333 24.064 24.064V399.70133334c0 14.336-9.557333 24.064-24.064 24.064h-28.842666L512 668.84266634l297.642667-250.026666c-4.778667-4.778667-9.557333-9.557333-9.557334-19.285334 0-14.506667 9.557333-24.064 24.064-24.064H872.106667c9.557333 0 19.114667 4.778667 24.064 14.336-0.170667 9.898667-0.170667 24.234667-9.728 29.013334z m-110.421334-322.048c-14.336 0-24.064-9.557333-24.064-24.064v-67.242667H531.114667c-14.336 0-24.064-9.557333-24.064-24.064s9.557333-24.064 24.064-24.064h244.736c14.336 0 24.064 9.557333 24.064 24.064v91.306667c0.170667 14.506667-9.557333 24.064-23.893334 24.064z m-172.885333 129.706666c43.178667 0 81.578667 38.4 81.578667 81.749334s-33.621333 81.749333-81.578667 81.749333c-47.957333 0-81.578667-33.621333-81.578667-81.749333 0-43.178667 38.4-81.749333 81.578667-81.749334z m0 115.541334c19.285333 0 33.621333-14.506667 33.621333-33.621334 0-19.285333-14.336-33.621333-33.621333-33.621333-19.285333 0-33.621333 14.506667-33.621333 33.621333 0.170667 19.114667 14.506667 33.621333 33.621333 33.621334z m-19.114667-245.248c52.736 0 100.864 19.285333 139.264 57.685333 38.4 38.4 57.685333 86.528 57.685334 139.434667s-19.285333 101.034667-57.685334 139.434666c-38.4 38.4-86.357333 57.685333-139.264 57.685334-52.736 0-100.864-19.285333-139.264-57.685334-57.514667-52.906667-72.021333-134.656-47.957333-206.677333l-76.8-76.970667c0-4.778667-4.778667-9.557333-4.778667-19.285333 0-9.557333 0-14.506667 4.778667-19.285333v-4.778667h-4.778667c-4.778667 4.778667-14.336 4.778667-19.285333 4.778667-9.557333 0-14.336-4.778667-19.114667-9.557334-33.621333-33.621333-33.621333-86.528 0-120.149333 14.336-14.506667 33.621333-24.064 57.514667-24.064 19.114667 0 43.178667 9.557333 62.464 38.4l115.2 115.370667c24.064-9.557333 47.957333-14.336 72.021333-14.336zM487.936 139.94666633999998l-124.757333-124.928c-14.336-14.506667-38.4-14.506667-52.736 0-14.336 9.557333-14.336 24.064-9.557334 38.4 14.336-4.778667 33.621333 0 43.178667 9.557334 14.336 14.336 19.114667 33.621333 14.336 52.906666l76.8 76.970667c4.778667 9.557333 9.557333 19.285333 4.778667 28.842667-24.064 57.685333-14.336 124.928 28.842666 168.277333 28.842667 28.842667 72.021333 43.349333 110.421334 43.349333s76.8-14.506667 105.642666-43.349333 43.178667-67.242667 43.178667-105.813333c0-38.4-14.336-76.970667-43.178667-105.813334s-67.242667-43.349333-105.642666-43.349333c-24.064 0-47.957333 4.778667-67.242667 14.336-9.557333 5.12-19.114667 0.341333-24.064-9.386667z"  horiz-adv-x="1024" />

    
    <glyph glyph-name="person-relation" unicode="&#58900;" d="M580.437333 283.81866634000005c3.413333-1.877333 7.168-2.901333 11.264-2.901333 13.312 0 24.234667 10.922667 24.234667 24.234667 0 11.264-7.509333 20.650667-17.92 23.381333-5.461333 2.048-10.922667 4.096-16.384 5.802667 60.245333 37.034667 100.522667 103.765333 100.522667 179.882666 0 36.693333-9.386667 71.168-25.770667 101.205334-0.512 1.194667-1.194667 2.389333-2.048 3.584-0.170667 0.170667-0.341333 0.512-0.512 0.682666h-0.170667c-4.266667 5.802667-11.264 9.728-18.944 9.728-12.970667 0-23.552-10.581333-23.552-23.722666 0-2.730667 0.512-5.290667 1.365334-7.850667l-0.512-0.170667c14.336-24.405333 22.698667-52.906667 22.698666-83.285333 0-84.821333-64.512-154.624-146.944-162.645333-4.949333 0.170667-9.898667 0.341333-15.018666 0.341333-5.461333 0-11.093333-0.170667-16.554667-0.341333-82.773333 7.850667-147.626667 77.653333-147.626667 162.816 0 90.282667 73.045333 163.498667 162.986667 163.498666 27.648 0 53.589333-6.826667 76.288-18.944l0.170667 0.341334c3.242667-1.706667 7.168-2.730667 11.093333-2.730667 12.970667 0 23.552 10.581333 23.552 23.722667 0 10.752-7.168 19.797333-16.896 22.698666-27.648 14.165333-59.733333 22.186667-93.696 22.186667-116.053333 0-210.261333-94.378667-210.261333-210.944 0-76.458667 40.618667-143.36 101.376-180.394667C226.474667 287.91466634000005 128 158.37866634 128 5.802666339999973V4.7786663399999725c0.341333-13.141333 10.922667-23.722667 24.064-23.722666 13.141333 0 23.893333 10.581333 24.234667 23.722666v1.706667c0 164.181333 132.608 297.130667 296.277333 297.130667 37.888 0 74.24-7.168 107.690667-20.309334l0.170666 0.512zM869.376 312.32000034c-37.034667 36.864-88.917333 38.912-123.392 4.778666L721.92 293.03466633999994c-9.386667-9.216-9.386667-24.234667-0.170667-33.621333s24.405333-9.386667 33.621334-0.170667l24.234666 24.064c17.749333 17.578667 41.130667 10.410667 56.32-4.778666 8.192-8.021333 12.629333-18.773333 12.629334-30.037334 0-11.264-4.437333-22.016-12.629334-30.037333l-76.288-75.776c-34.816-34.645333-51.2-18.432-58.197333-11.434667-9.386667 9.216-24.405333 9.216-33.621333-0.170666-9.386667-9.386667-9.216-24.405333 0-33.621334 16.042667-15.872 34.304-23.722667 53.418666-23.722666 23.552 0 48.298667 11.776 71.850667 35.157333l76.288 75.776c17.066667 17.066667 26.624 39.594667 26.624 63.829333s-9.386667 46.762667-26.624 63.829334z m-216.746667-275.626667L633.173333 17.408000339999944c-16.896-16.725333-44.202667-16.725333-61.098666 0-8.021333 8.021333-12.458667 18.773333-12.458667 30.037333 0 11.264 4.437333 22.016 12.458667 30.037333l71.509333 70.997334c14.848 14.677333 42.666667 36.352 62.976 16.213333 9.386667-9.216 24.405333-9.216 33.621333 0.170667 9.216 9.386667 9.216 24.405333 0 33.621333-34.645333 34.304-85.674667 27.989333-130.048-16.213333l-71.509333-70.997334c-17.237333-17.066667-26.624-39.765333-26.624-63.829333 0-24.064 9.386667-46.762667 26.624-63.829333 17.749333-17.578667 40.789333-26.282667 64-26.282667 23.210667 0 46.421333 8.704 64.170667 26.282667l19.456 19.285333c9.386667 9.216 9.386667 24.405333 0.170666 33.621333-9.386667 9.386667-24.405333 9.386667-33.792 0.170667z"  horiz-adv-x="1024" />

    
    <glyph glyph-name="person-lock" unicode="&#58901;" d="M580.608 283.81866634000005c3.413333-1.877333 7.168-2.901333 11.264-2.901333 13.312 0 24.234667 10.922667 24.234667 24.234667 0 11.264-7.509333 20.650667-17.92 23.381333-5.461333 2.048-10.922667 4.096-16.384 5.802667 60.245333 37.034667 100.522667 103.765333 100.522666 179.882666 0 36.693333-9.386667 71.168-25.770666 101.205334-0.512 1.194667-1.194667 2.389333-2.048 3.584-0.170667 0.170667-0.341333 0.512-0.341334 0.682666h-0.170666c-4.266667 5.802667-11.264 9.728-18.944 9.728-12.970667 0-23.552-10.581333-23.552-23.722666 0-2.730667 0.512-5.461333 1.365333-7.850667l-0.512-0.170667c14.506667-24.405333 22.698667-52.906667 22.698667-83.285333 0-84.821333-64.512-154.624-146.944-162.645333-4.949333 0.170667-9.898667 0.341333-15.018667 0.341333-5.461333 0-11.093333-0.170667-16.384-0.341333-82.773333 7.850667-147.626667 77.653333-147.626667 162.816 0 90.282667 73.045333 163.498667 162.986667 163.498666 27.648 0 53.589333-6.826667 76.288-18.944l0.170667 0.341334c3.242667-1.706667 7.168-2.730667 11.093333-2.730667 12.970667 0 23.552 10.581333 23.552 23.722667 0 10.752-7.168 19.797333-16.896 22.698666-28.16 14.165333-60.245333 22.186667-94.208 22.186667-116.053333 0-210.261333-94.378667-210.261333-210.944 0-76.458667 40.618667-143.36 101.205333-180.394667-136.533333-46.08-235.008-175.616-235.008-328.192v-1.194666c0.341333-13.141333 10.922667-23.722667 24.234667-23.722667s23.893333 10.581333 24.064 23.722667v1.706666c0 164.181333 132.608 297.130667 296.277333 297.130667 37.888 0 74.24-7.168 107.690667-20.309333l0.341333 0.682666z m289.621333-83.285333h-45.226666V244.05333334c0 53.76-43.349333 97.28-96.938667 97.28s-96.938667-43.52-96.938667-97.28v-43.52h-45.226666c-14.165333 0-25.770667-11.605333-25.770667-25.6V-17.06666666000001c0-13.994667 11.605333-25.6 25.770667-25.6h284.330666c14.165333 0 25.770667 11.605333 25.770667 25.6V174.93333334c0 13.994667-11.605333 25.6-25.770667 25.6zM663.381333 244.05333334c0 36.181333 29.013333 65.365333 64.682667 65.365333s64.682667-29.184 64.682667-65.365333v-43.52h-129.194667V244.05333334z m200.362667-254.805333h-271.36v179.2h271.36v-179.2z"  horiz-adv-x="1024" />

    
    <glyph glyph-name="info" unicode="&#58902;" d="M799.402667 466.26133368c0 39.765333-32.256 71.850667-71.850667 71.850666-39.594667 0-71.850667-32.256-71.850667-71.850666 0-39.765333 32.256-71.850667 71.850667-71.850667 39.594667 0 71.850667 32.256 71.850667 71.850667z m-71.850667-23.893334c-13.312 0-23.893333 10.752-23.893333 23.893334 0 13.312 10.752 23.893333 23.893333 23.893333s23.893333-10.752 23.893333-23.893333-10.752-23.893333-23.893333-23.893334z m-23.893333-239.445333h47.957333v143.701333h-47.957333v-143.701333z m143.701333-47.957333c0-26.453333-21.504-47.957333-47.957333-47.957334H224.426667c-26.453333 0-47.957333 21.504-47.957334 47.957334V538.2826666799999c0 26.453333 21.504 47.957333 47.957334 47.957333h574.976c26.453333 0 47.957333-21.504 47.957333-47.957333h47.957333c0 52.906667-42.837333 95.744-95.744 95.744h-575.146666c-52.906667 0-95.744-42.837333-95.744-95.744v-383.317333c0-52.906667 42.837333-95.744 95.744-95.744v-23.893334c0-39.765333 32.256-71.850667 71.850666-71.850666s71.850667 32.256 71.850667 71.850666v23.893334h287.402667v-23.893334c0-39.765333 32.256-71.850667 71.850666-71.850666 39.765333 0 71.850667 32.256 71.850667 71.850666v23.893334c52.906667 0 95.744 42.837333 95.744 95.744V442.36799968h-47.957333v-287.402666z m-527.018667-119.808c0-13.141333-10.752-23.893333-23.893333-23.893334-13.312 0-23.893333 10.752-23.893333 23.893334v23.893333h47.957333v-23.893333z m431.104 0c0-13.141333-10.752-23.893333-23.893333-23.893334-13.312 0-23.893333 10.752-23.893333 23.893334v23.893333h47.957333v-23.893333z"  horiz-adv-x="1024" />

    
    <glyph glyph-name="add" unicode="&#58903;" d="M689.493333 413.525333h-147.968V561.493333h-59.050666v-147.968H334.506667v-59.050666h147.968V206.506667h59.050666v147.968H689.493333z"  horiz-adv-x="1024" />

    
    <glyph glyph-name="add-circle" unicode="&#58904;" d="M512 827.733333C266.922667 827.733333 68.266667 629.077333 68.266667 384s198.656-443.733333 443.733333-443.733333 443.733333 198.656 443.733333 443.733333S757.077333 827.733333 512 827.733333z m0-828.245333C299.690667-0.5119999999999436 127.488 171.69066699999996 127.488 384S299.690667 768.512 512 768.512 896.512 596.3093329999999 896.512 384 724.309333-0.5119999999999436 512-0.5119999999999436zM541.525333 561.493333h-59.221333v-147.968H334.506667v-59.221333h147.968V206.506667h59.221333v147.968H689.493333v59.221333h-147.968V561.493333z"  horiz-adv-x="1024" />

    
    <glyph glyph-name="datas-sql" unicode="&#58905;" d="M512 723.79733334c-212.138667 0-384-37.034667-384-82.602667v-122.538666c0-45.568 171.861333-82.602667 384-82.602667s384 37.034667 384 82.602667v122.538666c0 45.738667-171.861333 82.602667-384 82.602667z m0-334.848c-212.138667 0-384 37.034667-384 82.602667 0-4.778667 0.853333-10.24 2.730667-16.384-2.56 6.485333-2.730667 10.581333-2.730667 10.581333v-184.32c0-45.568 171.861333-82.602667 384-82.602667s384 37.034667 384 82.602667V471.38133334s-0.512-4.096-3.242667-10.752c-24.405333-40.448-185.514667-71.68-380.757333-71.68z m0-239.957333c-212.138667 0-384 37.034667-384 82.602666 0-4.778667 0.853333-10.410667 2.730667-16.384-2.56 6.485333-2.730667 10.581333-2.730667 10.581334v-184.32c0-45.568 171.861333-82.602667 384-82.602667s384 36.864 384 82.602667V231.42400034000002s-0.512-4.096-3.242667-10.752c-24.405333-40.448-185.514667-71.68-380.757333-71.68z"  horiz-adv-x="1024" />

    
    <glyph glyph-name="person" unicode="&#58906;" d="M520.362667 343.04000034c101.205333 4.437333 181.930667 88.234667 181.930666 190.976 0 105.642667-85.162667 191.146667-190.293333 191.146666s-190.293333-85.674667-190.293333-191.146666c0-102.741333 80.725333-186.538667 181.930666-190.976C295.424 338.60266634000004 128 167.59466634 128-42.66666666000003h768c0 210.261333-167.424 381.269333-375.637333 385.706667z"  horiz-adv-x="1024" />

    
    <glyph glyph-name="note-book" unicode="&#58907;" d="M750.592 725.33333334H273.408c-53.76 0-97.450667-43.690667-97.450667-97.450667v-572.928c0-53.930667 43.690667-97.450667 97.450667-97.450666h477.013333c53.76 0 97.450667 43.690667 97.450667 97.450666V627.88266634c0.170667 53.76-43.52 97.450667-97.28 97.450667zM391.509333 533.50400034h143.872c13.312 0 24.064-10.752 24.064-24.064s-10.752-24.064-24.064-24.064h-143.872c-13.312 0-24.064 10.752-24.064 24.064 0 13.141333 10.752 24.064 24.064 24.064z m-95.573333-336.384c0.170667 0 0.170667 0 0 0-13.312 0-24.064 10.752-24.064 24.064s10.752 24.064 24.064 24.064h-0.170667 0c13.312 0 24.064-10.752 24.064-24.064 0.170667-13.141333-10.581333-23.893333-23.893333-24.064z m0 143.872c0.170667 0 0.170667 0 0 0-13.312 0-24.064 10.752-24.064 24.064s10.752 24.064 24.064 24.064h-0.170667 0c13.312 0 24.064-10.752 24.064-24.064 0.170667-13.141333-10.581333-23.893333-23.893333-24.064z m0 144.213333c0.170667 0 0.170667 0 0 0-13.312 0-24.064 10.752-24.064 24.064s10.752 24.064 24.064 24.064h-0.170667 0c13.312 0 24.064-10.752 24.064-24.064 0.170667-13.141333-10.581333-23.893333-23.893333-24.064z m335.36-288.085333H391.509333c-13.312 0-24.064 10.752-24.064 24.064s10.752 24.064 24.064 24.064h239.786667c13.312 0 24.064-10.752 24.064-24.064 0-13.141333-10.752-24.064-24.064-24.064z m48.64 143.872h-288.426667c-13.312 0-24.064 10.752-24.064 24.064s10.752 24.064 24.064 24.064h288.426667c13.312 0 24.064-10.752 24.064-24.064s-10.752-24.064-24.064-24.064z"  horiz-adv-x="1024" />

    
    <glyph glyph-name="pen-square" unicode="&#58908;" d="M750.592 725.33333334H273.408c-53.76 0-97.450667-43.690667-97.450667-97.450667v-572.928c0-53.930667 43.690667-97.450667 97.450667-97.450666h477.013333c53.76 0 97.450667 43.690667 97.450667 97.450666V627.88266634c0.170667 53.76-43.52 97.450667-97.28 97.450667z m-57.514667-235.008L358.229333 155.30666634c-9.216-9.216-83.968-56.32-86.869333-53.418666-2.56 2.56 44.202667 77.653333 53.418667 86.869333l334.848 335.018667c9.216 9.216 24.234667 9.216 33.450666 0 9.386667-9.216 9.386667-24.234667 0-33.450667z"  horiz-adv-x="1024" />

    
    <glyph glyph-name="moneybag" unicode="&#58909;" d="M831.317333 124.24533300999997c-0.170667 0.853333-18.090667 78.165333-46.421333 154.453334-16.896 45.226667-33.962667 81.408-51.2 107.52-10.581333 16.042667-21.162667 28.501333-31.744 37.205333-12.8 10.410667-25.770667 15.701333-38.912 15.701333h-302.08c-12.970667 0-26.112-5.290667-38.912-15.701333-10.581333-8.704-21.333333-21.162667-31.914667-37.205333-17.066667-26.112-34.304-62.293333-51.2-107.52-28.330667-76.288-46.250667-153.770667-46.421333-154.453334l-0.341333-1.194666v-1.365334c0-45.056 17.578667-87.381333 49.322666-119.296 31.914667-31.914667 74.24-49.322667 119.296-49.322666h302.08c45.056 0 87.381333 17.578667 119.296 49.322666 31.914667 31.914667 49.322667 74.24 49.322667 119.296v1.365334l-0.170667 1.194666z m-168.277333-148.48h-302.08c-80.042667 0-145.408 64.853333-146.090667 144.725334 2.389333 10.24 19.456 80.896 45.397334 150.698666 16.213333 43.690667 32.597333 78.165333 48.810666 102.912 18.261333 27.989333 36.181333 42.666667 51.712 42.666667h302.08c15.530667 0 33.450667-14.677333 51.712-42.666667 16.213333-24.576 32.597333-59.221333 48.810667-102.912 25.941333-69.802667 43.008-140.458667 45.397333-150.698666-0.512-79.872-65.706667-144.725333-145.749333-144.725334zM414.378667 461.14133301H612.693333c65.194667 0 118.101333 53.077333 118.101334 118.101334 0 25.941333-7.850667 52.394667-21.674667 72.533333-15.36 22.528-36.181333 34.986667-58.368 34.986667-10.922667 0-22.016-3.072-32.768-9.216-3.413333-1.877333-6.997333-4.437333-10.922667-6.997334-12.970667-8.704-29.013333-19.456-47.786666-20.309333h-0.341334c-5.290667 0-11.264 5.632-18.090666 12.117333-10.922667 10.24-24.405333 23.04-45.568 23.04-1.536 0-3.072 0-4.608-0.170666-10.752-0.853333-25.429333-8.192-48.298667-19.968-13.653333-6.997333-29.013333-15.018667-36.352-16.554667-2.901333-0.682667-5.802667-0.853333-8.874667-0.853333-9.728 0-19.114667 3.072-28.16 5.973333-8.704 2.901333-16.896 5.461333-25.429333 5.461333-12.288 0-22.186667-5.802667-29.354667-17.408-11.776-18.773333-18.090667-40.448-18.090666-62.805333 0-64.853333 53.077333-117.930667 118.272-117.930667z m-81.066667 168.96c3.925333 6.314667 7.338667 6.826667 10.24 6.826667 4.778667 0 11.434667-2.218667 18.432-4.437333 10.24-3.413333 21.845333-7.168 35.157333-7.168 4.608 0 9.045333 0.512 13.482667 1.365333 10.410667 2.218667 25.770667 10.069333 42.154667 18.602667 14.677333 7.509333 32.938667 16.896 39.936 17.578666 0.853333 0 1.706667 0.170667 2.730666 0.170667 12.288 0 20.821333-8.192 30.037334-16.896 9.045333-8.533333 19.456-18.261333 33.621333-18.261333h1.194667c25.258667 1.024 45.909333 14.848 59.562666 24.064 3.754667 2.389333 6.826667 4.608 9.386667 6.144 7.338667 4.096 14.506667 6.144 21.674667 6.144 19.626667 0 33.28-15.701333 39.594666-25.088 11.264-16.554667 17.749333-38.4 17.749334-59.904 0-52.736-42.837333-95.573333-95.573334-95.573334H414.378667c-52.736 0-95.573333 42.837333-95.573334 95.573334-0.170667 18.090667 4.949333 35.669333 14.506667 50.858666zM599.04 179.02933300999996c6.314667 0 11.264 5.12 11.264 11.264 0 6.314667-5.12 11.264-11.264 11.264h-59.050667l60.074667 106.496c3.072 5.461333 1.194667 12.288-4.266667 15.36-5.461333 3.072-12.288 1.194667-15.36-4.266666L518.826667 210.09066700999995l-62.805334 111.274666c-3.072 5.461333-9.898667 7.338667-15.36 4.266667-5.461333-3.072-7.338667-9.898667-4.266666-15.36l61.44-108.714667h-59.050667c-6.314667 0-11.264-5.12-11.264-11.264 0-6.314667 5.12-11.264 11.264-11.264h68.778667V147.62666701h-68.778667c-6.314667 0-11.264-5.12-11.264-11.264 0-6.314667 5.12-11.264 11.264-11.264h68.778667V77.65333300999998c0-6.314667 5.12-11.264 11.264-11.264 6.314667 0 11.264 5.12 11.264 11.264v47.445334H599.04c6.314667 0 11.264 5.12 11.264 11.264 0 6.314667-5.12 11.264-11.264 11.264h-68.778667v31.402666H599.04z"  horiz-adv-x="1024" />

    
    <glyph glyph-name="charts" unicode="&#58910;" d="M687.616 650.41066701h-10.752c-6.314667 0-11.605333-5.12-11.605333-11.605334 0-6.314667 5.12-11.605333 11.605333-11.605333h10.752c48.469333 0 87.893333-39.424 87.893333-87.893333v-473.088c0-48.469333-39.424-87.893333-87.893333-87.893334H336.384c-48.469333 0-87.893333 39.424-87.893333 87.893334V539.4773330099999c0 48.469333 39.424 87.893333 87.893333 87.893334h12.8c6.314667 0 11.605333 5.12 11.605333 11.605333 0 6.314667-5.12 11.605333-11.605333 11.605333h-12.8c-61.098667 0-110.933333-49.834667-110.933333-110.933333v-473.088c0-61.098667 49.834667-110.933333 110.933333-110.933333H687.786667c61.098667 0 110.933333 49.834667 110.933333 110.933333V539.4773330099999c-0.170667 61.269333-49.834667 110.933333-111.104 110.933334zM441.514667 598.1866670100001h146.261333c25.258667 0 45.738667 17.92 45.738667 43.178666s-20.48 43.178667-45.738667 43.178667h-146.261333c-25.258667 0-45.738667-17.92-45.738667-43.178667s20.48-43.178667 45.738667-43.178666z m0 63.317333h146.261333c12.458667 0 22.698667-7.68 22.698667-20.138667s-10.24-20.138667-22.698667-20.138666h-146.261333c-12.458667 0-22.698667 7.68-22.698667 20.138666s10.069333 20.138667 22.698667 20.138667zM329.045333 130.56000000999995c-6.314667 0-11.605333-5.12-11.605333-11.605333 0-6.314667 5.12-11.605333 11.605333-11.605334h373.589334c6.314667 0 11.605333 5.12 11.605333 11.605334 0 6.314667-5.12 11.605333-11.605333 11.605333H329.045333z m-3.242666 124.586667c2.048-1.706667 4.608-2.56 7.168-2.56 3.413333 0 6.656 1.536 9.045333 4.266666l38.741333 48.298667 60.757334-44.373333c4.266667-3.072 9.898667-2.901333 13.994666 0.341333l250.368 178.176c4.949333 3.925333 5.802667 11.264 1.706667 16.213333-3.925333 4.949333-11.264 5.802667-16.213333 1.706667L448 284.50133301000005 385.365333 330.24000001c-4.949333 3.584-11.946667 2.730667-15.701333-2.048l-45.568-56.832c-4.096-4.949333-3.242667-12.288 1.706667-16.213333z"  horiz-adv-x="1024" />

    
    <glyph glyph-name="datas" unicode="&#58911;" d="M858.624 193.53600000999995c0 0.341333-0.170667 0.512-0.170667 0.853333-0.853333 3.242667-93.354667 322.389333-124.586666 429.397334-12.458667 43.008-36.693333 51.882667-54.613334 51.882666H344.746667c-18.090667 0-42.154667-9.045333-54.613334-52.053333-30.037333-103.765333-125.781333-429.909333-126.634666-433.152 0-0.341333-0.170667-0.512-0.170667-0.853333-3.925333-7.68-6.314667-15.872-6.314667-23.722667v-136.704c0-30.378667 34.645333-64.853333 64.853334-64.853333h580.266666c30.378667 0 64.853333 34.645333 64.853334 64.853333v136.704c0 9.216-3.072 18.773333-8.362667 27.648zM311.466667 617.47200001c6.997333 23.893333 18.090667 36.010667 33.28 36.010667h334.506666c5.632 0 22.869333 0 33.28-36.010667 24.917333-85.504 88.917333-306.346667 114.176-393.386667-8.021333 4.266667-16.384 6.656-24.576 6.656H221.866667c-8.533333 0-17.237333-2.730667-25.6-7.168 26.624 90.624 91.477333 311.808 115.2 393.898667zM844.8 29.184000009999977c0-8.362667-5.632-19.114667-14.506667-28.16-9.045333-9.045333-19.797333-14.506667-28.16-14.506667H221.866667c-8.362667 0-19.114667 5.632-28.16 14.506667-9.045333 9.045333-14.506667 19.797333-14.506667 28.16v136.704c0 8.362667 5.632 19.114667 14.506667 28.16 9.045333 9.045333 19.797333 14.506667 28.16 14.506667h580.266666c8.362667 0 19.114667-5.632 28.16-14.506667 9.045333-9.045333 14.506667-19.797333 14.506667-28.16v-136.704zM378.026667 531.2853330099999h266.410666c6.144 0 11.093333 4.949333 11.093334 11.093334s-4.949333 11.093333-11.093334 11.093333H378.026667c-6.144 0-11.093333-4.949333-11.093334-11.093333s4.949333-11.093333 11.093334-11.093334z m-28.842667-111.104h320.853333c6.144 0 11.093333 4.949333 11.093334 11.093334s-4.949333 11.093333-11.093334 11.093333h-320.853333c-6.144 0-11.093333-4.949333-11.093333-11.093333s4.949333-11.093333 11.093333-11.093334z m-15.018667-111.104H689.493333c6.144 0 11.093333 4.949333 11.093334 11.093334s-4.949333 11.093333-11.093334 11.093333H334.165333c-6.144 0-11.093333-4.949333-11.093333-11.093333s4.949333-11.093333 11.093333-11.093334z m433.152-200.362666h-88.746666c-6.144 0-11.093333-4.949333-11.093334-11.093334s4.949333-11.093333 11.093334-11.093333h88.746666c6.144 0 11.093333 4.949333 11.093334 11.093333s-4.949333 11.093333-11.093334 11.093334z"  horiz-adv-x="1024" />

    
    <glyph glyph-name="recycled" unicode="&#58912;" d="M879.274667 130.73066701000005c-10.922667 18.944-37.034667 62.122667-64.682667 107.690666-31.232 51.541333-63.317333 104.96-78.677333 131.413334-3.413333 5.802667-10.752 7.68-16.554667 4.437333-5.802667-3.413333-7.68-10.752-4.437333-16.554667 15.36-26.794667 47.786667-80.213333 79.018666-131.754666 27.477333-45.568 53.589333-88.746667 64.341334-107.349334 15.018667-25.941333 17.408-50.346667 6.997333-68.608-8.874667-15.36-26.282667-25.088-45.568-25.088h-139.605333l22.698666 22.698667c4.778667 4.778667 4.778667 12.288 0 17.066667s-12.288 4.778667-17.066666 0l-43.52-43.52c-4.778667-4.778667-4.778667-12.288 0-17.066667l43.52-43.52c2.389333-2.389333 5.461333-3.584 8.533333-3.584 3.072 0 6.144 1.194667 8.533333 3.584 4.778667 4.778667 4.778667 12.288 0 17.066667L679.594667 0.8533330100000285h140.288c27.818667 0 53.248 14.165333 66.389333 37.034667 8.704 15.189333 19.456 47.274667-6.997333 92.842667z m-319.146667-105.984c-74.581333 0-290.986667-0.170667-352.597333-0.170667-22.357333 0-40.448 9.045333-49.322667 25.088-9.898667 17.578667-7.850667 40.789333 5.802667 63.317333l0.170666 0.170667c22.186667 38.570667 46.933333 81.578667 74.922667 130.048l7.68-33.450667c1.365333-5.632 6.314667-9.386667 11.776-9.386666 0.853333 0 1.877333 0.170667 2.730667 0.341333 6.485333 1.536 10.581333 8.021333 9.045333 14.506667l-14.165333 61.610666c-0.682667 3.072-2.56 5.802667-5.290667 7.509334-2.730667 1.706667-5.973333 2.218667-9.045333 1.536l-61.610667-14.165334c-6.485333-1.536-10.581333-8.021333-9.045333-14.506666 1.536-6.485333 8.021333-10.581333 14.506666-9.045334l32.938667 7.68c-27.989333-48.64-52.906667-91.818667-75.093333-130.389333-9.045333-15.018667-14.165333-30.549333-15.189334-45.909333-1.024-15.018667 2.218667-29.354667 9.045334-41.642667 13.312-23.722667 39.082667-37.376 70.314666-37.376 61.610667 0 277.845333 0 352.597334 0.170667 6.656 0 12.117333 5.461333 12.117333 12.117333-0.170667 6.656-5.632 11.946667-12.288 11.946667z m120.149333 416.938666c2.218667 0 4.437333 0.682667 6.485334 1.877334 2.730667 1.706667 4.608 4.437333 5.290666 7.509333l13.994667 62.976c1.536 6.485333-2.56 12.970667-9.216 14.336-6.485333 1.536-12.970667-2.56-14.336-9.216l-7.68-34.645333c-36.010667 62.122667-64.682667 111.786667-85.674667 147.797333-26.112 44.885333-60.757333 51.029333-79.189333 50.688-29.013333-0.512-56.661333-17.578667-70.314667-43.349333-11.264-19.456-37.205333-65.194667-64.682666-113.493334-31.744-55.978667-67.754667-119.296-89.088-156.330666-3.413333-5.802667-1.365333-13.141333 4.437333-16.554667 1.877333-1.024 3.925333-1.536 5.973333-1.536 4.096 0 8.192 2.218667 10.410667 5.973333 21.333333 37.034667 57.344 100.522667 89.088 156.501334 27.477333 48.469333 53.418667 94.208 64.682667 113.493333 0 0.170667 0.170667 0.341333 0.170666 0.341333 9.728 18.261333 29.184 30.378667 49.664 30.72 22.528 0.341333 43.008-13.312 57.856-38.570666 20.992-36.010667 49.834667-86.016 86.016-148.309334l-34.304 7.68c-6.485333 1.536-12.970667-2.56-14.336-9.216-1.536-6.485333 2.730667-12.970667 9.216-14.336l62.976-13.994666c0.853333-0.341333 1.706667-0.341333 2.56-0.341334z"  horiz-adv-x="1024" />

    
    <glyph glyph-name="person-money" unicode="&#58913;" d="M843.093333 78.50666667999997h-67.072v-44.544H843.093333c11.946667 0 21.674667-9.728 21.674667-21.674667 0-11.946667-9.728-21.845333-21.674667-21.845333h-67.072V-32.42666631999998c0-11.946667-9.728-21.674667-21.674666-21.674667-11.946667 0-21.674667 9.728-21.674667 21.674667v22.698666H665.6c-11.946667 0-21.674667 9.728-21.674667 21.845334 0 11.946667 9.728 21.674667 21.674667 21.674666h67.072V78.50666667999997H665.6c-11.946667 0-21.674667 9.728-21.674667 21.674667 0 11.946667 9.728 21.674667 21.674667 21.674666h177.493333c11.946667 0 21.674667-9.728 21.674667-21.674666 0-11.946667-9.728-21.674667-21.674667-21.674667z m-41.813333 70.485333c-8.533333-8.533333-22.186667-8.533333-30.72 0s-8.533333 22.186667 0 30.72l46.08 46.08c8.533333 8.533333 22.186667 8.533333 30.72 0s8.533333-22.357333 0-30.72l-46.08-46.08z m-94.549333-0.853333L660.48 194.55999968000003c-8.533333 8.533333-8.533333 22.357333 0 30.890667 8.533333 8.533333 22.357333 8.533333 30.890667 0l46.250666-46.421333c8.533333-8.533333 8.533333-22.357333 0-30.890667-8.533333-8.533333-22.357333-8.533333-30.890666 0z m-130.56 144.213333c5.12-1.706667 10.069333-3.413333 15.018666-5.461333 9.386667-2.56 16.384-11.264 16.384-21.504 0-12.288-9.898667-22.357333-22.186666-22.357333-3.754667 0-7.338667 1.024-10.410667 2.56l-0.170667-0.512c-30.72 11.946667-64 18.602667-98.816 18.602666-150.357333 0-272.213333-122.197333-272.213333-273.066666v-1.536c-0.341333-12.117333-10.069333-21.674667-22.186667-21.674667s-21.845333 9.728-22.186666 21.674667v0.341333 0.170667 0.170666 0.341334c0 140.117333 90.453333 259.242667 216.064 301.568-55.808 33.962667-93.013333 95.402667-93.013334 165.717333 0 107.008 86.528 193.706667 193.194667 193.706667 31.232 0 60.586667-7.338667 86.698667-20.650667 9.045333-2.56 15.530667-10.922667 15.530666-20.821333 0-11.946667-9.728-21.674667-21.674666-21.674667-3.754667 0-7.168 0.853333-10.24 2.56l-0.170667-0.341333c-20.992 11.093333-44.885333 17.408-70.144 17.408-82.773333 0-149.845333-67.242667-149.845333-150.186667 0-78.165333 59.562667-142.506667 135.68-149.504 4.949333 0.170667 10.069333 0.341333 15.189333 0.341333 4.608 0 9.216-0.170667 13.824-0.341333 75.776 7.509333 134.997333 71.509333 134.997333 149.504 0 27.989333-7.68 54.101333-20.821333 76.458667l0.341333 0.170666c-0.853333 2.218667-1.194667 4.608-1.194666 7.168 0 11.946667 9.728 21.674667 21.674666 21.674667 7.168 0 13.482667-3.413333 17.408-8.874667h0.170667c0.170667-0.170667 0.341333-0.512 0.341333-0.682666 0.682667-1.024 1.365333-2.048 1.877334-3.242667 15.018667-27.648 23.552-59.221333 23.552-92.842667-0.341333-69.461333-37.376-130.730667-92.672-164.864z"  horiz-adv-x="1024" />

    
    <glyph glyph-name="delete-circle" unicode="&#58914;" d="M565.589333 448.00000034h-106.837333c-5.802667 0-10.752-4.778667-10.752-10.752v-10.752h128v10.752c0 6.144-4.608 10.752-10.410667 10.752zM512 725.33333334C299.861333 725.33333334 128 553.47200034 128 341.33333333999997s171.861333-384 384-384 384 171.861333 384 384S724.138667 725.33333334 512 725.33333334z m106.666667-501.248c0-17.749333-14.336-31.914667-32.085334-31.914667h-149.333333c-17.578667 0-31.914667 14.336-31.914667 31.914667v160.085333c0 5.973333 4.778667 10.752 10.752 10.752s10.752-4.778667 10.752-10.752v-160.085333c0-5.802667 4.778667-10.752 10.752-10.752h149.333334c5.802667 0 10.752 4.778667 10.752 10.752v159.744c0 5.973333 4.778667 10.752 10.752 10.752s10.752-4.778667 10.752-10.752v-159.744z m-149.333334 42.666667V384.00000034c0 5.973333 4.778667 10.752 10.752 10.752s10.752-4.778667 10.752-10.752v-117.248c0-5.973333-4.778667-10.752-10.581333-10.752-6.144 0-10.922667 4.778667-10.922667 10.752z m64 0V384.00000034c0 5.973333 4.778667 10.752 10.752 10.752s10.581333-4.778667 10.581334-10.752v-117.248c0-5.973333-4.778667-10.752-10.581334-10.752-5.973333 0-10.752 4.778667-10.752 10.752z m117.248 138.581333H373.248c-5.973333 0-10.581333 4.778667-10.581333 10.581333 0 5.973333 4.778667 10.752 10.581333 10.752H426.666667v10.752c0 17.749333 14.336 31.914667 31.914666 32.085334h106.837334c17.578667 0 31.744-14.336 31.744-32.085334v-10.752h53.418666c5.802667 0 10.581333-4.778667 10.581334-10.752 0.170667-5.802667-4.608-10.581333-10.581334-10.581333z"  horiz-adv-x="1024" />

    
    <glyph glyph-name="eye" unicode="&#58915;" d="M510.976 427.34933334c-55.466667 0-106.154667-32.426667-144.896-86.016h0.170667c38.912-53.589333 89.6-86.016 144.896-86.016 55.466667 0 106.154667 32.426667 145.066666 86.016h-0.170666c-38.912 53.589333-89.6 86.016-145.066667 86.016z m0.170667-137.557333c-29.354667 0-53.248 23.04-53.248 51.541333s23.722667 51.541333 53.248 51.541333c29.354667 0 53.077333-23.04 53.077333-51.541333 0.170667-28.501333-23.722667-51.541333-53.077333-51.541333z m-0.341334 82.944c-17.749333 0-32.256-13.994667-32.256-31.232 0-17.237333 14.506667-31.232 32.256-31.232 17.749333 0 32.256 13.994667 32.256 31.232 0 17.237333-14.336 31.232-32.256 31.232z m0.341334 352.597333c-212.138667 0-384-171.861333-384-384s171.861333-384 384-384 384 171.861333 384 384-171.861333 384-384 384z m0-490.666667c-65.194667 0-124.928 40.277333-170.666667 106.666667h-0.170667c45.738667 66.389333 105.301333 106.666667 170.496 106.666667s124.757333-40.277333 170.496-106.666667h0.170667c-45.397333-66.389333-104.96-106.666667-170.325333-106.666667z"  horiz-adv-x="1024" />

    
    <glyph glyph-name="checkstatus" unicode="&#58917;" d="M473.770667 136.19200034000005c-9.216 0-18.432 3.584-25.429334 10.581333l-148.138666 148.138667c-13.994667 13.994667-13.994667 36.864 0 51.029333 13.994667 13.994667 36.864 13.994667 51.029333 0l122.709333-122.709333 313.514667 313.514666c14.165333 13.994667 36.864 13.994667 51.029333 0 13.994667-13.994667 13.994667-36.864 0-51.029333L499.2 146.77333334000002c-6.997333-6.997333-16.213333-10.581333-25.429333-10.581333zM512-42.66666666000003C300.202667-42.66666666000003 128 129.53600034 128 341.33333333999997S300.202667 725.33333334 512 725.33333334c75.605333 0 148.650667-21.845333 211.456-63.317333 12.629333-8.362667 16.042667-25.429333 7.850667-38.058667-8.362667-12.629333-25.429333-16.042667-38.058667-7.850667-53.76 35.498667-116.394667 54.272-181.248 54.272-181.418667 0-329.216-147.626667-329.216-329.216C182.784 159.74400033999996 330.410667 11.946666339999979 512 11.946666339999979c181.418667 0 329.216 147.626667 329.216 329.216 0 11.434667-0.512 23.04-1.706667 34.304-1.536 15.018667 9.386667 28.501333 24.405334 30.037334 15.018667 1.536 28.501333-9.386667 30.037333-24.405334 1.365333-13.141333 2.048-26.624 2.048-39.936 0-211.626667-172.202667-383.829333-384-383.829333z"  horiz-adv-x="1024" />

    
    <glyph glyph-name="message" unicode="&#58919;" d="M784 688.00000001H240c-88 0-160-72-160-160v-416c0-88 72-160 160-160h544c88 0 160 72 160 160V528.00000001c0 88-72 160-160 160z m-544-64h544c35.2 0 65.6-19.2 81.6-46.4L552 323.20000001000005c-24-19.2-57.6-19.2-80 0L158.4 577.60000001c16 27.2 46.4 46.4 81.6 46.4z m544-608H240c-52.8 0-96 43.2-96 96V505.60000001L432 272.00000001c24-19.2 51.2-28.8 80-28.8 28.8 0 57.6 9.6 80 28.8l288 233.6V112.00000001000001c0-52.8-43.2-96-96-96z"  horiz-adv-x="1024" />

    


  </font>
</defs>
</svg>
